<mxfile host="app.diagrams.net" agent="Mozilla/5.0 (Macintosh; Intel Mac OS X 10_15_7) AppleWebKit/537.36 (KHTML, like Gecko) Chrome/130.0.0.0 Safari/537.36" version="24.8.3">
  <diagram name="Page-1" id="yKWcBG-ynSExE3HqbAn5">
    <mxGraphModel dx="2786" dy="1372" grid="1" gridSize="10" guides="1" tooltips="1" connect="1" arrows="1" fold="1" page="1" pageScale="1" pageWidth="827" pageHeight="1169" math="0" shadow="0">
      <root>
        <mxCell id="0" />
        <mxCell id="1" parent="0" />
        <mxCell id="KZKB2ITsnp8akYaJ9J3_-43" value="" style="group" vertex="1" connectable="0" parent="1">
          <mxGeometry x="40" y="120" width="720" height="940" as="geometry" />
        </mxCell>
        <mxCell id="KZKB2ITsnp8akYaJ9J3_-15" style="edgeStyle=orthogonalEdgeStyle;rounded=0;orthogonalLoop=1;jettySize=auto;html=1;exitX=1;exitY=0.5;exitDx=0;exitDy=0;entryX=0;entryY=0.5;entryDx=0;entryDy=0;" edge="1" parent="KZKB2ITsnp8akYaJ9J3_-43" source="KZKB2ITsnp8akYaJ9J3_-1" target="KZKB2ITsnp8akYaJ9J3_-7">
          <mxGeometry relative="1" as="geometry" />
        </mxCell>
        <mxCell id="KZKB2ITsnp8akYaJ9J3_-1" value="" style="rounded=1;whiteSpace=wrap;html=1;" vertex="1" parent="KZKB2ITsnp8akYaJ9J3_-43">
          <mxGeometry width="120" height="60" as="geometry" />
        </mxCell>
        <mxCell id="KZKB2ITsnp8akYaJ9J3_-17" style="edgeStyle=orthogonalEdgeStyle;rounded=0;orthogonalLoop=1;jettySize=auto;html=1;" edge="1" parent="KZKB2ITsnp8akYaJ9J3_-43" source="KZKB2ITsnp8akYaJ9J3_-2">
          <mxGeometry relative="1" as="geometry">
            <mxPoint x="280" y="110" as="targetPoint" />
            <Array as="points">
              <mxPoint x="200" y="190" />
              <mxPoint x="200" y="110" />
            </Array>
          </mxGeometry>
        </mxCell>
        <mxCell id="KZKB2ITsnp8akYaJ9J3_-2" value="" style="rounded=1;whiteSpace=wrap;html=1;" vertex="1" parent="KZKB2ITsnp8akYaJ9J3_-43">
          <mxGeometry y="160" width="120" height="60" as="geometry" />
        </mxCell>
        <mxCell id="KZKB2ITsnp8akYaJ9J3_-16" style="edgeStyle=orthogonalEdgeStyle;rounded=0;orthogonalLoop=1;jettySize=auto;html=1;" edge="1" parent="KZKB2ITsnp8akYaJ9J3_-43" source="KZKB2ITsnp8akYaJ9J3_-3">
          <mxGeometry relative="1" as="geometry">
            <mxPoint x="280" y="110" as="targetPoint" />
          </mxGeometry>
        </mxCell>
        <mxCell id="KZKB2ITsnp8akYaJ9J3_-3" value="" style="rounded=1;whiteSpace=wrap;html=1;" vertex="1" parent="KZKB2ITsnp8akYaJ9J3_-43">
          <mxGeometry y="80" width="120" height="60" as="geometry" />
        </mxCell>
        <mxCell id="KZKB2ITsnp8akYaJ9J3_-23" style="edgeStyle=orthogonalEdgeStyle;rounded=0;orthogonalLoop=1;jettySize=auto;html=1;entryX=0;entryY=0.5;entryDx=0;entryDy=0;" edge="1" parent="KZKB2ITsnp8akYaJ9J3_-43" source="KZKB2ITsnp8akYaJ9J3_-4" target="KZKB2ITsnp8akYaJ9J3_-10">
          <mxGeometry relative="1" as="geometry" />
        </mxCell>
        <mxCell id="KZKB2ITsnp8akYaJ9J3_-4" value="" style="rounded=1;whiteSpace=wrap;html=1;" vertex="1" parent="KZKB2ITsnp8akYaJ9J3_-43">
          <mxGeometry y="360" width="120" height="60" as="geometry" />
        </mxCell>
        <mxCell id="KZKB2ITsnp8akYaJ9J3_-21" style="edgeStyle=orthogonalEdgeStyle;rounded=0;orthogonalLoop=1;jettySize=auto;html=1;exitX=1;exitY=0.5;exitDx=0;exitDy=0;entryX=0;entryY=0.5;entryDx=0;entryDy=0;" edge="1" parent="KZKB2ITsnp8akYaJ9J3_-43" source="KZKB2ITsnp8akYaJ9J3_-5" target="KZKB2ITsnp8akYaJ9J3_-10">
          <mxGeometry relative="1" as="geometry" />
        </mxCell>
        <mxCell id="KZKB2ITsnp8akYaJ9J3_-5" value="" style="rounded=1;whiteSpace=wrap;html=1;" vertex="1" parent="KZKB2ITsnp8akYaJ9J3_-43">
          <mxGeometry y="280" width="120" height="60" as="geometry" />
        </mxCell>
        <mxCell id="KZKB2ITsnp8akYaJ9J3_-6" value="" style="rounded=1;whiteSpace=wrap;html=1;" vertex="1" parent="KZKB2ITsnp8akYaJ9J3_-43">
          <mxGeometry x="560" width="120" height="60" as="geometry" />
        </mxCell>
        <mxCell id="KZKB2ITsnp8akYaJ9J3_-18" style="edgeStyle=orthogonalEdgeStyle;rounded=0;orthogonalLoop=1;jettySize=auto;html=1;exitX=1;exitY=0.5;exitDx=0;exitDy=0;entryX=0;entryY=0.5;entryDx=0;entryDy=0;" edge="1" parent="KZKB2ITsnp8akYaJ9J3_-43" source="KZKB2ITsnp8akYaJ9J3_-7" target="KZKB2ITsnp8akYaJ9J3_-9">
          <mxGeometry relative="1" as="geometry" />
        </mxCell>
        <mxCell id="KZKB2ITsnp8akYaJ9J3_-19" style="edgeStyle=orthogonalEdgeStyle;rounded=0;orthogonalLoop=1;jettySize=auto;html=1;exitX=1;exitY=0.25;exitDx=0;exitDy=0;entryX=0;entryY=0.5;entryDx=0;entryDy=0;" edge="1" parent="KZKB2ITsnp8akYaJ9J3_-43" source="KZKB2ITsnp8akYaJ9J3_-7" target="KZKB2ITsnp8akYaJ9J3_-6">
          <mxGeometry relative="1" as="geometry">
            <Array as="points">
              <mxPoint x="400" y="110" />
              <mxPoint x="480" y="110" />
              <mxPoint x="480" y="30" />
            </Array>
          </mxGeometry>
        </mxCell>
        <mxCell id="KZKB2ITsnp8akYaJ9J3_-20" style="edgeStyle=orthogonalEdgeStyle;rounded=0;orthogonalLoop=1;jettySize=auto;html=1;exitX=1;exitY=0.75;exitDx=0;exitDy=0;entryX=0;entryY=0.5;entryDx=0;entryDy=0;" edge="1" parent="KZKB2ITsnp8akYaJ9J3_-43" source="KZKB2ITsnp8akYaJ9J3_-7" target="KZKB2ITsnp8akYaJ9J3_-8">
          <mxGeometry relative="1" as="geometry">
            <Array as="points">
              <mxPoint x="400" y="110" />
              <mxPoint x="480" y="110" />
              <mxPoint x="480" y="190" />
            </Array>
          </mxGeometry>
        </mxCell>
        <mxCell id="KZKB2ITsnp8akYaJ9J3_-24" style="edgeStyle=orthogonalEdgeStyle;rounded=0;orthogonalLoop=1;jettySize=auto;html=1;exitX=0.5;exitY=1;exitDx=0;exitDy=0;entryX=0.5;entryY=0;entryDx=0;entryDy=0;" edge="1" parent="KZKB2ITsnp8akYaJ9J3_-43" source="KZKB2ITsnp8akYaJ9J3_-7" target="KZKB2ITsnp8akYaJ9J3_-10">
          <mxGeometry relative="1" as="geometry" />
        </mxCell>
        <mxCell id="KZKB2ITsnp8akYaJ9J3_-7" value="" style="rounded=1;whiteSpace=wrap;html=1;" vertex="1" parent="KZKB2ITsnp8akYaJ9J3_-43">
          <mxGeometry x="280" y="80" width="120" height="60" as="geometry" />
        </mxCell>
        <mxCell id="KZKB2ITsnp8akYaJ9J3_-8" value="" style="rounded=1;whiteSpace=wrap;html=1;" vertex="1" parent="KZKB2ITsnp8akYaJ9J3_-43">
          <mxGeometry x="560" y="160" width="120" height="60" as="geometry" />
        </mxCell>
        <mxCell id="KZKB2ITsnp8akYaJ9J3_-9" value="" style="rounded=1;whiteSpace=wrap;html=1;" vertex="1" parent="KZKB2ITsnp8akYaJ9J3_-43">
          <mxGeometry x="560" y="80" width="120" height="60" as="geometry" />
        </mxCell>
        <mxCell id="KZKB2ITsnp8akYaJ9J3_-27" style="edgeStyle=orthogonalEdgeStyle;rounded=0;orthogonalLoop=1;jettySize=auto;html=1;entryX=0.5;entryY=0;entryDx=0;entryDy=0;" edge="1" parent="KZKB2ITsnp8akYaJ9J3_-43" source="KZKB2ITsnp8akYaJ9J3_-10" target="KZKB2ITsnp8akYaJ9J3_-25">
          <mxGeometry relative="1" as="geometry" />
        </mxCell>
        <mxCell id="KZKB2ITsnp8akYaJ9J3_-28" style="edgeStyle=orthogonalEdgeStyle;rounded=0;orthogonalLoop=1;jettySize=auto;html=1;exitX=1;exitY=0.5;exitDx=0;exitDy=0;entryX=0;entryY=0.5;entryDx=0;entryDy=0;" edge="1" parent="KZKB2ITsnp8akYaJ9J3_-43" source="KZKB2ITsnp8akYaJ9J3_-10" target="KZKB2ITsnp8akYaJ9J3_-12">
          <mxGeometry relative="1" as="geometry" />
        </mxCell>
        <mxCell id="KZKB2ITsnp8akYaJ9J3_-29" style="edgeStyle=orthogonalEdgeStyle;rounded=0;orthogonalLoop=1;jettySize=auto;html=1;exitX=1;exitY=0.5;exitDx=0;exitDy=0;entryX=0;entryY=0.5;entryDx=0;entryDy=0;" edge="1" parent="KZKB2ITsnp8akYaJ9J3_-43" source="KZKB2ITsnp8akYaJ9J3_-10" target="KZKB2ITsnp8akYaJ9J3_-11">
          <mxGeometry relative="1" as="geometry" />
        </mxCell>
        <mxCell id="KZKB2ITsnp8akYaJ9J3_-30" style="edgeStyle=orthogonalEdgeStyle;rounded=0;orthogonalLoop=1;jettySize=auto;html=1;exitX=1;exitY=0.5;exitDx=0;exitDy=0;entryX=0;entryY=0.5;entryDx=0;entryDy=0;" edge="1" parent="KZKB2ITsnp8akYaJ9J3_-43" source="KZKB2ITsnp8akYaJ9J3_-10" target="KZKB2ITsnp8akYaJ9J3_-14">
          <mxGeometry relative="1" as="geometry" />
        </mxCell>
        <mxCell id="KZKB2ITsnp8akYaJ9J3_-31" style="edgeStyle=orthogonalEdgeStyle;rounded=0;orthogonalLoop=1;jettySize=auto;html=1;exitX=1;exitY=0.5;exitDx=0;exitDy=0;entryX=0;entryY=0.5;entryDx=0;entryDy=0;" edge="1" parent="KZKB2ITsnp8akYaJ9J3_-43" source="KZKB2ITsnp8akYaJ9J3_-10" target="KZKB2ITsnp8akYaJ9J3_-13">
          <mxGeometry relative="1" as="geometry" />
        </mxCell>
        <mxCell id="KZKB2ITsnp8akYaJ9J3_-32" style="edgeStyle=orthogonalEdgeStyle;rounded=0;orthogonalLoop=1;jettySize=auto;html=1;exitX=1;exitY=0.5;exitDx=0;exitDy=0;entryX=0;entryY=0.5;entryDx=0;entryDy=0;" edge="1" parent="KZKB2ITsnp8akYaJ9J3_-43" source="KZKB2ITsnp8akYaJ9J3_-10" target="KZKB2ITsnp8akYaJ9J3_-26">
          <mxGeometry relative="1" as="geometry" />
        </mxCell>
        <mxCell id="KZKB2ITsnp8akYaJ9J3_-38" style="edgeStyle=orthogonalEdgeStyle;rounded=0;orthogonalLoop=1;jettySize=auto;html=1;exitX=1;exitY=0.5;exitDx=0;exitDy=0;entryX=0;entryY=0.5;entryDx=0;entryDy=0;" edge="1" parent="KZKB2ITsnp8akYaJ9J3_-43" source="KZKB2ITsnp8akYaJ9J3_-10" target="KZKB2ITsnp8akYaJ9J3_-36">
          <mxGeometry relative="1" as="geometry" />
        </mxCell>
        <mxCell id="KZKB2ITsnp8akYaJ9J3_-39" style="edgeStyle=orthogonalEdgeStyle;rounded=0;orthogonalLoop=1;jettySize=auto;html=1;exitX=1;exitY=0.5;exitDx=0;exitDy=0;entryX=0;entryY=0.5;entryDx=0;entryDy=0;" edge="1" parent="KZKB2ITsnp8akYaJ9J3_-43" source="KZKB2ITsnp8akYaJ9J3_-10" target="KZKB2ITsnp8akYaJ9J3_-37">
          <mxGeometry relative="1" as="geometry" />
        </mxCell>
        <mxCell id="KZKB2ITsnp8akYaJ9J3_-10" value="" style="rounded=1;whiteSpace=wrap;html=1;" vertex="1" parent="KZKB2ITsnp8akYaJ9J3_-43">
          <mxGeometry x="280" y="320" width="120" height="60" as="geometry" />
        </mxCell>
        <mxCell id="KZKB2ITsnp8akYaJ9J3_-41" style="edgeStyle=orthogonalEdgeStyle;rounded=0;orthogonalLoop=1;jettySize=auto;html=1;exitX=1;exitY=0.5;exitDx=0;exitDy=0;entryX=1;entryY=0.5;entryDx=0;entryDy=0;" edge="1" parent="KZKB2ITsnp8akYaJ9J3_-43" source="KZKB2ITsnp8akYaJ9J3_-25" target="KZKB2ITsnp8akYaJ9J3_-37">
          <mxGeometry relative="1" as="geometry">
            <Array as="points">
              <mxPoint x="720" y="910" />
              <mxPoint x="720" y="830" />
            </Array>
          </mxGeometry>
        </mxCell>
        <mxCell id="KZKB2ITsnp8akYaJ9J3_-42" style="edgeStyle=orthogonalEdgeStyle;rounded=0;orthogonalLoop=1;jettySize=auto;html=1;exitX=1;exitY=0.5;exitDx=0;exitDy=0;entryX=1;entryY=0.5;entryDx=0;entryDy=0;" edge="1" parent="KZKB2ITsnp8akYaJ9J3_-43" source="KZKB2ITsnp8akYaJ9J3_-25" target="KZKB2ITsnp8akYaJ9J3_-36">
          <mxGeometry relative="1" as="geometry">
            <Array as="points">
              <mxPoint x="720" y="910" />
              <mxPoint x="720" y="750" />
            </Array>
          </mxGeometry>
        </mxCell>
        <mxCell id="KZKB2ITsnp8akYaJ9J3_-25" value="" style="rounded=1;whiteSpace=wrap;html=1;" vertex="1" parent="KZKB2ITsnp8akYaJ9J3_-43">
          <mxGeometry x="280" y="880" width="120" height="60" as="geometry" />
        </mxCell>
        <mxCell id="KZKB2ITsnp8akYaJ9J3_-11" value="" style="rounded=1;whiteSpace=wrap;html=1;" vertex="1" parent="KZKB2ITsnp8akYaJ9J3_-43">
          <mxGeometry x="560" y="400" width="120" height="60" as="geometry" />
        </mxCell>
        <mxCell id="KZKB2ITsnp8akYaJ9J3_-12" value="" style="rounded=1;whiteSpace=wrap;html=1;" vertex="1" parent="KZKB2ITsnp8akYaJ9J3_-43">
          <mxGeometry x="560" y="320" width="120" height="60" as="geometry" />
        </mxCell>
        <mxCell id="KZKB2ITsnp8akYaJ9J3_-13" value="" style="rounded=1;whiteSpace=wrap;html=1;" vertex="1" parent="KZKB2ITsnp8akYaJ9J3_-43">
          <mxGeometry x="560" y="560" width="120" height="60" as="geometry" />
        </mxCell>
        <mxCell id="KZKB2ITsnp8akYaJ9J3_-14" value="" style="rounded=1;whiteSpace=wrap;html=1;" vertex="1" parent="KZKB2ITsnp8akYaJ9J3_-43">
          <mxGeometry x="560" y="480" width="120" height="60" as="geometry" />
        </mxCell>
        <mxCell id="KZKB2ITsnp8akYaJ9J3_-26" value="" style="rounded=1;whiteSpace=wrap;html=1;" vertex="1" parent="KZKB2ITsnp8akYaJ9J3_-43">
          <mxGeometry x="560" y="640" width="120" height="60" as="geometry" />
        </mxCell>
        <mxCell id="KZKB2ITsnp8akYaJ9J3_-36" value="" style="rounded=1;whiteSpace=wrap;html=1;" vertex="1" parent="KZKB2ITsnp8akYaJ9J3_-43">
          <mxGeometry x="560" y="720" width="120" height="60" as="geometry" />
        </mxCell>
        <mxCell id="KZKB2ITsnp8akYaJ9J3_-37" value="" style="rounded=1;whiteSpace=wrap;html=1;" vertex="1" parent="KZKB2ITsnp8akYaJ9J3_-43">
          <mxGeometry x="560" y="800" width="120" height="60" as="geometry" />
        </mxCell>
      </root>
    </mxGraphModel>
  </diagram>
</mxfile>
